<mxfile host="65bd71144e">
    <diagram id="ZzSd9RIM8s81c7YOA8vA" name="Page-1">
        <mxGraphModel dx="2227" dy="2287" grid="1" gridSize="10" guides="1" tooltips="1" connect="1" arrows="1" fold="1" page="1" pageScale="1" pageWidth="850" pageHeight="1100" math="0" shadow="0">
            <root>
                <mxCell id="0"/>
                <mxCell id="1" parent="0"/>
                <mxCell id="6" value="Joueur" style="swimlane;fontStyle=0;childLayout=stackLayout;horizontal=1;startSize=26;fillColor=none;horizontalStack=0;resizeParent=1;resizeParentMax=0;resizeLast=0;collapsible=1;marginBottom=0;" parent="1" vertex="1">
                    <mxGeometry x="188" y="336" width="140" height="130" as="geometry"/>
                </mxCell>
                <mxCell id="258" value="nom" style="text;strokeColor=none;fillColor=none;align=left;verticalAlign=top;spacingLeft=4;spacingRight=4;overflow=hidden;rotatable=0;points=[[0,0.5],[1,0.5]];portConstraint=eastwest;fontStyle=4" vertex="1" parent="6">
                    <mxGeometry y="26" width="140" height="26" as="geometry"/>
                </mxCell>
                <mxCell id="259" value="experience" style="text;strokeColor=none;fillColor=none;align=left;verticalAlign=top;spacingLeft=4;spacingRight=4;overflow=hidden;rotatable=0;points=[[0,0.5],[1,0.5]];portConstraint=eastwest;fontStyle=0" vertex="1" parent="6">
                    <mxGeometry y="52" width="140" height="26" as="geometry"/>
                </mxCell>
                <mxCell id="69" value="solde" style="text;strokeColor=none;fillColor=none;align=left;verticalAlign=top;spacingLeft=4;spacingRight=4;overflow=hidden;rotatable=0;points=[[0,0.5],[1,0.5]];portConstraint=eastwest;" parent="6" vertex="1">
                    <mxGeometry y="78" width="140" height="26" as="geometry"/>
                </mxCell>
                <mxCell id="260" value="classe" style="text;strokeColor=none;fillColor=none;align=left;verticalAlign=top;spacingLeft=4;spacingRight=4;overflow=hidden;rotatable=0;points=[[0,0.5],[1,0.5]];portConstraint=eastwest;" vertex="1" parent="6">
                    <mxGeometry y="104" width="140" height="26" as="geometry"/>
                </mxCell>
                <mxCell id="11" value="PNJ" style="swimlane;fontStyle=0;childLayout=stackLayout;horizontal=1;startSize=26;fillColor=none;horizontalStack=0;resizeParent=1;resizeParentMax=0;resizeLast=0;collapsible=1;marginBottom=0;" parent="1" vertex="1">
                    <mxGeometry x="765" y="618" width="140" height="78" as="geometry"/>
                </mxCell>
                <mxCell id="262" value="nom" style="text;strokeColor=none;fillColor=none;align=left;verticalAlign=top;spacingLeft=4;spacingRight=4;overflow=hidden;rotatable=0;points=[[0,0.5],[1,0.5]];portConstraint=eastwest;fontStyle=4" vertex="1" parent="11">
                    <mxGeometry y="26" width="140" height="26" as="geometry"/>
                </mxCell>
                <mxCell id="264" value="pnj_type" style="text;strokeColor=none;fillColor=none;align=left;verticalAlign=top;spacingLeft=4;spacingRight=4;overflow=hidden;rotatable=0;points=[[0,0.5],[1,0.5]];portConstraint=eastwest;fontStyle=0" vertex="1" parent="11">
                    <mxGeometry y="52" width="140" height="26" as="geometry"/>
                </mxCell>
                <mxCell id="13" value="Statistique" style="swimlane;fontStyle=0;childLayout=stackLayout;horizontal=1;startSize=26;fillColor=none;horizontalStack=0;resizeParent=1;resizeParentMax=0;resizeLast=0;collapsible=1;marginBottom=0;" parent="1" vertex="1">
                    <mxGeometry x="470" y="190" width="140" height="78" as="geometry"/>
                </mxCell>
                <mxCell id="83" value="nom" style="text;strokeColor=none;fillColor=none;align=left;verticalAlign=top;spacingLeft=4;spacingRight=4;overflow=hidden;rotatable=0;points=[[0,0.5],[1,0.5]];portConstraint=eastwest;fontStyle=6" parent="13" vertex="1">
                    <mxGeometry y="26" width="140" height="26" as="geometry"/>
                </mxCell>
                <mxCell id="152" value="valeur" style="text;strokeColor=none;fillColor=none;align=left;verticalAlign=top;spacingLeft=4;spacingRight=4;overflow=hidden;rotatable=0;points=[[0,0.5],[1,0.5]];portConstraint=eastwest;" parent="13" vertex="1">
                    <mxGeometry y="52" width="140" height="26" as="geometry"/>
                </mxCell>
                <mxCell id="14" value="Slot" style="swimlane;fontStyle=0;childLayout=stackLayout;horizontal=1;startSize=26;fillColor=none;horizontalStack=0;resizeParent=1;resizeParentMax=0;resizeLast=0;collapsible=1;marginBottom=0;" parent="1" vertex="1">
                    <mxGeometry x="188" y="-10" width="140" height="78" as="geometry"/>
                </mxCell>
                <mxCell id="253" value="id" style="text;strokeColor=none;fillColor=none;align=left;verticalAlign=top;spacingLeft=4;spacingRight=4;overflow=hidden;rotatable=0;points=[[0,0.5],[1,0.5]];portConstraint=eastwest;fontStyle=4" vertex="1" parent="14">
                    <mxGeometry y="26" width="140" height="26" as="geometry"/>
                </mxCell>
                <mxCell id="252" value="slot_type" style="text;strokeColor=none;fillColor=none;align=left;verticalAlign=top;spacingLeft=4;spacingRight=4;overflow=hidden;rotatable=0;points=[[0,0.5],[1,0.5]];portConstraint=eastwest;" vertex="1" parent="14">
                    <mxGeometry y="52" width="140" height="26" as="geometry"/>
                </mxCell>
                <mxCell id="123" style="edgeStyle=orthogonalEdgeStyle;html=1;endArrow=diamondThin;endFill=0;endSize=15;" parent="1" target="122" edge="1" source="14">
                    <mxGeometry relative="1" as="geometry">
                        <Array as="points">
                            <mxPoint x="258" y="80"/>
                            <mxPoint x="258" y="80"/>
                        </Array>
                        <mxPoint x="103.00000000000023" y="82" as="sourcePoint"/>
                    </mxGeometry>
                </mxCell>
                <mxCell id="236" style="html=1;endArrow=none;endFill=0;endSize=10;" parent="1" source="26" target="29" edge="1">
                    <mxGeometry relative="1" as="geometry"/>
                </mxCell>
                <mxCell id="26" value="Objet" style="swimlane;fontStyle=0;childLayout=stackLayout;horizontal=1;startSize=26;fillColor=none;horizontalStack=0;resizeParent=1;resizeParentMax=0;resizeLast=0;collapsible=1;marginBottom=0;" parent="1" vertex="1">
                    <mxGeometry x="745" y="28" width="180" height="182" as="geometry"/>
                </mxCell>
                <mxCell id="99" value="idObj" style="text;strokeColor=none;fillColor=none;align=left;verticalAlign=top;spacingLeft=4;spacingRight=4;overflow=hidden;rotatable=0;points=[[0,0.5],[1,0.5]];portConstraint=eastwest;fontStyle=4" parent="26" vertex="1">
                    <mxGeometry y="26" width="180" height="26" as="geometry"/>
                </mxCell>
                <mxCell id="91" value="nom" style="text;strokeColor=none;fillColor=none;align=left;verticalAlign=top;spacingLeft=4;spacingRight=4;overflow=hidden;rotatable=0;points=[[0,0.5],[1,0.5]];portConstraint=eastwest;" parent="26" vertex="1">
                    <mxGeometry y="52" width="180" height="26" as="geometry"/>
                </mxCell>
                <mxCell id="94" value="description" style="text;strokeColor=none;fillColor=none;align=left;verticalAlign=top;spacingLeft=4;spacingRight=4;overflow=hidden;rotatable=0;points=[[0,0.5],[1,0.5]];portConstraint=eastwest;" parent="26" vertex="1">
                    <mxGeometry y="78" width="180" height="26" as="geometry"/>
                </mxCell>
                <mxCell id="107" value="niveauRequis" style="text;strokeColor=none;fillColor=none;align=left;verticalAlign=top;spacingLeft=4;spacingRight=4;overflow=hidden;rotatable=0;points=[[0,0.5],[1,0.5]];portConstraint=eastwest;" parent="26" vertex="1">
                    <mxGeometry y="104" width="180" height="26" as="geometry"/>
                </mxCell>
                <mxCell id="266" value="object_type" style="text;strokeColor=none;fillColor=none;align=left;verticalAlign=top;spacingLeft=4;spacingRight=4;overflow=hidden;rotatable=0;points=[[0,0.5],[1,0.5]];portConstraint=eastwest;" vertex="1" parent="26">
                    <mxGeometry y="130" width="180" height="26" as="geometry"/>
                </mxCell>
                <mxCell id="267" value="rarete" style="text;strokeColor=none;fillColor=none;align=left;verticalAlign=top;spacingLeft=4;spacingRight=4;overflow=hidden;rotatable=0;points=[[0,0.5],[1,0.5]];portConstraint=eastwest;" vertex="1" parent="26">
                    <mxGeometry y="156" width="180" height="26" as="geometry"/>
                </mxCell>
                <mxCell id="29" value="QuÃªte" style="swimlane;fontStyle=0;childLayout=stackLayout;horizontal=1;startSize=26;fillColor=none;horizontalStack=0;resizeParent=1;resizeParentMax=0;resizeLast=0;collapsible=1;marginBottom=0;" parent="1" vertex="1">
                    <mxGeometry x="765" y="360" width="140" height="184" as="geometry"/>
                </mxCell>
                <mxCell id="104" value="nom" style="text;strokeColor=none;fillColor=none;align=left;verticalAlign=top;spacingLeft=4;spacingRight=4;overflow=hidden;rotatable=0;points=[[0,0.5],[1,0.5]];portConstraint=eastwest;fontStyle=4" parent="29" vertex="1">
                    <mxGeometry y="26" width="140" height="28" as="geometry"/>
                </mxCell>
                <mxCell id="105" value="description" style="text;strokeColor=none;fillColor=none;align=left;verticalAlign=top;spacingLeft=4;spacingRight=4;overflow=hidden;rotatable=0;points=[[0,0.5],[1,0.5]];portConstraint=eastwest;" parent="29" vertex="1">
                    <mxGeometry y="54" width="140" height="26" as="geometry"/>
                </mxCell>
                <mxCell id="106" value="niveauRequis" style="text;strokeColor=none;fillColor=none;align=left;verticalAlign=top;spacingLeft=4;spacingRight=4;overflow=hidden;rotatable=0;points=[[0,0.5],[1,0.5]];portConstraint=eastwest;" parent="29" vertex="1">
                    <mxGeometry y="80" width="140" height="26" as="geometry"/>
                </mxCell>
                <mxCell id="254" value="dateDÃ©but" style="text;strokeColor=none;fillColor=none;align=left;verticalAlign=top;spacingLeft=4;spacingRight=4;overflow=hidden;rotatable=0;points=[[0,0.5],[1,0.5]];portConstraint=eastwest;" vertex="1" parent="29">
                    <mxGeometry y="106" width="140" height="26" as="geometry"/>
                </mxCell>
                <mxCell id="255" value="dateFin" style="text;strokeColor=none;fillColor=none;align=left;verticalAlign=top;spacingLeft=4;spacingRight=4;overflow=hidden;rotatable=0;points=[[0,0.5],[1,0.5]];portConstraint=eastwest;" vertex="1" parent="29">
                    <mxGeometry y="132" width="140" height="26" as="geometry"/>
                </mxCell>
                <mxCell id="256" value="quest_Type" style="text;strokeColor=none;fillColor=none;align=left;verticalAlign=top;spacingLeft=4;spacingRight=4;overflow=hidden;rotatable=0;points=[[0,0.5],[1,0.5]];portConstraint=eastwest;" vertex="1" parent="29">
                    <mxGeometry y="158" width="140" height="26" as="geometry"/>
                </mxCell>
                <mxCell id="154" value="" style="endArrow=none;html=1;rounded=0;align=center;verticalAlign=top;endFill=0;labelBackgroundColor=none;endSize=15;entryX=0.75;entryY=0;entryDx=0;entryDy=0;" parent="29" target="29" edge="1">
                    <mxGeometry relative="1" as="geometry">
                        <mxPoint x="140" y="58" as="sourcePoint"/>
                        <mxPoint x="140" y="-142" as="targetPoint"/>
                        <Array as="points">
                            <mxPoint x="200" y="58"/>
                            <mxPoint x="230" y="58"/>
                            <mxPoint x="250" y="58"/>
                            <mxPoint x="250" y="-69"/>
                            <mxPoint x="105" y="-69"/>
                        </Array>
                    </mxGeometry>
                </mxCell>
                <mxCell id="155" value="requiert" style="resizable=0;html=1;align=left;verticalAlign=bottom;labelBackgroundColor=none;" parent="154" connectable="0" vertex="1">
                    <mxGeometry x="-1" relative="1" as="geometry">
                        <mxPoint x="-40" y="-130" as="offset"/>
                    </mxGeometry>
                </mxCell>
                <mxCell id="156" value="*" style="resizable=0;html=1;align=left;verticalAlign=top;labelBackgroundColor=none;" parent="154" connectable="0" vertex="1">
                    <mxGeometry x="-1" relative="1" as="geometry">
                        <mxPoint x="9" as="offset"/>
                    </mxGeometry>
                </mxCell>
                <mxCell id="157" value="*" style="resizable=0;html=1;align=right;verticalAlign=bottom;labelBackgroundColor=none;" parent="154" connectable="0" vertex="1">
                    <mxGeometry x="1" relative="1" as="geometry">
                        <mxPoint x="-8" as="offset"/>
                    </mxGeometry>
                </mxCell>
                <mxCell id="78" value="" style="endArrow=none;html=1;rounded=0;align=center;verticalAlign=top;endFill=0;labelBackgroundColor=none;endSize=15;entryX=0;entryY=0.5;entryDx=0;entryDy=0;exitX=1;exitY=0.5;exitDx=0;exitDy=0;" parent="1" source="258" target="83" edge="1">
                    <mxGeometry relative="1" as="geometry">
                        <mxPoint x="310" y="320" as="sourcePoint"/>
                        <mxPoint x="468.32000000000016" y="319.55999999999995" as="targetPoint"/>
                        <Array as="points">
                            <mxPoint x="380" y="375"/>
                            <mxPoint x="380" y="229"/>
                        </Array>
                    </mxGeometry>
                </mxCell>
                <mxCell id="79" value="possÃ¨de &amp;gt;" style="resizable=0;html=1;align=left;verticalAlign=bottom;labelBackgroundColor=none;" parent="78" connectable="0" vertex="1">
                    <mxGeometry x="-1" relative="1" as="geometry">
                        <mxPoint x="55" y="-164" as="offset"/>
                    </mxGeometry>
                </mxCell>
                <mxCell id="80" value="1" style="resizable=0;html=1;align=left;verticalAlign=top;labelBackgroundColor=none;" parent="78" connectable="0" vertex="1">
                    <mxGeometry x="-1" relative="1" as="geometry">
                        <mxPoint x="5" y="-1" as="offset"/>
                    </mxGeometry>
                </mxCell>
                <mxCell id="81" value="1" style="resizable=0;html=1;align=right;verticalAlign=bottom;labelBackgroundColor=none;" parent="78" connectable="0" vertex="1">
                    <mxGeometry x="1" relative="1" as="geometry">
                        <mxPoint x="-8" as="offset"/>
                    </mxGeometry>
                </mxCell>
                <mxCell id="116" value="" style="endArrow=none;html=1;rounded=0;align=center;verticalAlign=top;endFill=0;labelBackgroundColor=none;endSize=15;" parent="1" source="6" edge="1" target="122">
                    <mxGeometry relative="1" as="geometry">
                        <mxPoint x="260" y="280" as="sourcePoint"/>
                        <mxPoint x="290" y="190" as="targetPoint"/>
                    </mxGeometry>
                </mxCell>
                <mxCell id="117" value="dispose &amp;gt;" style="resizable=0;html=1;align=left;verticalAlign=bottom;labelBackgroundColor=none;" parent="116" connectable="0" vertex="1">
                    <mxGeometry x="-1" relative="1" as="geometry">
                        <mxPoint y="-102" as="offset"/>
                    </mxGeometry>
                </mxCell>
                <mxCell id="118" value="*" style="resizable=0;html=1;align=left;verticalAlign=top;labelBackgroundColor=none;" parent="116" connectable="0" vertex="1">
                    <mxGeometry x="-1" relative="1" as="geometry">
                        <mxPoint x="10" y="-20" as="offset"/>
                    </mxGeometry>
                </mxCell>
                <mxCell id="119" value="1" style="resizable=0;html=1;align=right;verticalAlign=bottom;labelBackgroundColor=none;" parent="116" connectable="0" vertex="1">
                    <mxGeometry x="1" relative="1" as="geometry">
                        <mxPoint x="-8" y="18" as="offset"/>
                    </mxGeometry>
                </mxCell>
                <mxCell id="122" value="Inventaire" style="swimlane;fontStyle=0;childLayout=stackLayout;horizontal=1;startSize=26;fillColor=none;horizontalStack=0;resizeParent=1;resizeParentMax=0;resizeLast=0;collapsible=1;marginBottom=0;" parent="1" vertex="1">
                    <mxGeometry x="188" y="140" width="140" height="52" as="geometry"/>
                </mxCell>
                <mxCell id="268" value="id" style="text;strokeColor=none;fillColor=none;align=left;verticalAlign=top;spacingLeft=4;spacingRight=4;overflow=hidden;rotatable=0;points=[[0,0.5],[1,0.5]];portConstraint=eastwest;fontStyle=4" vertex="1" parent="122">
                    <mxGeometry y="26" width="140" height="26" as="geometry"/>
                </mxCell>
                <mxCell id="129" value="1" style="text;html=1;align=center;verticalAlign=middle;resizable=0;points=[];autosize=1;strokeColor=none;fillColor=none;" parent="1" vertex="1">
                    <mxGeometry x="260" y="110" width="30" height="30" as="geometry"/>
                </mxCell>
                <mxCell id="131" value="*" style="text;html=1;align=center;verticalAlign=middle;resizable=0;points=[];autosize=1;strokeColor=none;fillColor=none;" parent="1" vertex="1">
                    <mxGeometry x="230" y="65" width="30" height="30" as="geometry"/>
                </mxCell>
                <mxCell id="148" value="" style="endArrow=none;html=1;rounded=0;align=center;verticalAlign=top;endFill=0;labelBackgroundColor=none;endSize=15;entryX=0;entryY=0.5;entryDx=0;entryDy=0;" parent="1" source="13" target="91" edge="1">
                    <mxGeometry relative="1" as="geometry">
                        <mxPoint x="608.5999999999999" y="321.328" as="sourcePoint"/>
                        <mxPoint x="478.32000000000016" y="329.55999999999995" as="targetPoint"/>
                    </mxGeometry>
                </mxCell>
                <mxCell id="149" value="&amp;lt; a pour modificateur" style="resizable=0;html=1;align=left;verticalAlign=bottom;labelBackgroundColor=none;" parent="148" connectable="0" vertex="1">
                    <mxGeometry x="-1" relative="1" as="geometry">
                        <mxPoint x="-49" y="-60" as="offset"/>
                    </mxGeometry>
                </mxCell>
                <mxCell id="150" value="*" style="resizable=0;html=1;align=left;verticalAlign=top;labelBackgroundColor=none;" parent="148" connectable="0" vertex="1">
                    <mxGeometry x="-1" relative="1" as="geometry">
                        <mxPoint x="11" y="-11" as="offset"/>
                    </mxGeometry>
                </mxCell>
                <mxCell id="151" value="*" style="resizable=0;html=1;align=right;verticalAlign=bottom;labelBackgroundColor=none;" parent="148" connectable="0" vertex="1">
                    <mxGeometry x="1" relative="1" as="geometry">
                        <mxPoint x="-8" as="offset"/>
                    </mxGeometry>
                </mxCell>
                <mxCell id="159" value="requise" style="resizable=0;html=1;align=left;verticalAlign=bottom;labelBackgroundColor=none;" parent="1" connectable="0" vertex="1">
                    <mxGeometry x="940" y="413.002" as="geometry"/>
                </mxCell>
                <mxCell id="237" style="edgeStyle=none;html=1;endArrow=none;endFill=0;endSize=10;dashed=1;dashPattern=12 12;" parent="1" source="160" edge="1">
                    <mxGeometry relative="1" as="geometry">
                        <mxPoint x="825" y="298" as="targetPoint"/>
                    </mxGeometry>
                </mxCell>
                <mxCell id="160" value="RÃ©compense" style="swimlane;fontStyle=0;childLayout=stackLayout;horizontal=1;startSize=26;fillColor=none;horizontalStack=0;resizeParent=1;resizeParentMax=0;resizeLast=0;collapsible=1;marginBottom=0;" parent="1" vertex="1">
                    <mxGeometry x="660" y="258" width="120" height="78" as="geometry"/>
                </mxCell>
                <mxCell id="161" value="montant" style="text;strokeColor=none;fillColor=none;align=left;verticalAlign=top;spacingLeft=4;spacingRight=4;overflow=hidden;rotatable=0;points=[[0,0.5],[1,0.5]];portConstraint=eastwest;" parent="160" vertex="1">
                    <mxGeometry y="26" width="120" height="26" as="geometry"/>
                </mxCell>
                <mxCell id="163" value="experience" style="text;strokeColor=none;fillColor=none;align=left;verticalAlign=top;spacingLeft=4;spacingRight=4;overflow=hidden;rotatable=0;points=[[0,0.5],[1,0.5]];portConstraint=eastwest;" parent="160" vertex="1">
                    <mxGeometry y="52" width="120" height="26" as="geometry"/>
                </mxCell>
                <mxCell id="182" value="" style="endArrow=none;html=1;rounded=0;align=center;verticalAlign=top;endFill=0;labelBackgroundColor=none;exitX=1;exitY=0.75;exitDx=0;exitDy=0;entryX=0.002;entryY=-0.266;entryDx=0;entryDy=0;entryPerimeter=0;" parent="1" source="14" target="99" edge="1">
                    <mxGeometry relative="1" as="geometry">
                        <mxPoint x="660" y="40" as="sourcePoint"/>
                        <mxPoint x="820" y="40" as="targetPoint"/>
                    </mxGeometry>
                </mxCell>
                <mxCell id="183" value="contient &amp;gt;" style="resizable=0;html=1;align=left;verticalAlign=bottom;labelBackgroundColor=none;" parent="182" connectable="0" vertex="1">
                    <mxGeometry x="-1" relative="1" as="geometry">
                        <mxPoint x="182" y="-8" as="offset"/>
                    </mxGeometry>
                </mxCell>
                <mxCell id="184" value="0..1" style="resizable=0;html=1;align=left;verticalAlign=top;labelBackgroundColor=none;" parent="182" connectable="0" vertex="1">
                    <mxGeometry x="-1" relative="1" as="geometry"/>
                </mxCell>
                <mxCell id="185" value="0..1" style="resizable=0;html=1;align=right;verticalAlign=bottom;labelBackgroundColor=none;" parent="182" connectable="0" vertex="1">
                    <mxGeometry x="1" relative="1" as="geometry"/>
                </mxCell>
                <mxCell id="188" value="CI: Le slot d'Ã©quipement peut accepter uniquement un objet de type de ce slot (Casque, buste, etc.)" style="whiteSpace=wrap;html=1;" parent="1" vertex="1">
                    <mxGeometry x="10" y="50" width="150" height="90" as="geometry"/>
                </mxCell>
                <mxCell id="192" value="" style="endArrow=none;html=1;rounded=0;align=center;verticalAlign=top;endFill=0;labelBackgroundColor=none;" parent="1" source="11" target="29" edge="1">
                    <mxGeometry relative="1" as="geometry">
                        <mxPoint x="30" y="670" as="sourcePoint"/>
                        <mxPoint x="790" y="435" as="targetPoint"/>
                    </mxGeometry>
                </mxCell>
                <mxCell id="193" value="1" style="resizable=0;html=1;align=left;verticalAlign=bottom;labelBackgroundColor=none;" parent="192" connectable="0" vertex="1">
                    <mxGeometry x="-1" relative="1" as="geometry">
                        <mxPoint x="5" y="2" as="offset"/>
                    </mxGeometry>
                </mxCell>
                <mxCell id="194" value="*" style="resizable=0;html=1;align=left;verticalAlign=top;labelBackgroundColor=none;" parent="192" connectable="0" vertex="1">
                    <mxGeometry x="-1" relative="1" as="geometry">
                        <mxPoint x="-15" y="-278" as="offset"/>
                    </mxGeometry>
                </mxCell>
                <mxCell id="205" value="a &amp;gt;" style="text;html=1;align=center;verticalAlign=middle;resizable=0;points=[];autosize=1;strokeColor=none;fillColor=none;" parent="1" vertex="1">
                    <mxGeometry x="225" y="88" width="40" height="30" as="geometry"/>
                </mxCell>
                <mxCell id="244" style="edgeStyle=none;html=1;endArrow=none;endFill=0;endSize=10;dashed=1;dashPattern=12 12;" parent="1" source="212" edge="1">
                    <mxGeometry relative="1" as="geometry">
                        <mxPoint x="510" y="426" as="targetPoint"/>
                    </mxGeometry>
                </mxCell>
                <mxCell id="212" value="accepte" style="swimlane;fontStyle=0;childLayout=stackLayout;horizontal=1;startSize=26;fillColor=none;horizontalStack=0;resizeParent=1;resizeParentMax=0;resizeLast=0;collapsible=1;marginBottom=0;" parent="1" vertex="1">
                    <mxGeometry x="450" y="345" width="120" height="52" as="geometry"/>
                </mxCell>
                <mxCell id="213" value="complÃ©tÃ©" style="text;strokeColor=none;fillColor=none;align=left;verticalAlign=top;spacingLeft=4;spacingRight=4;overflow=hidden;rotatable=0;points=[[0,0.5],[1,0.5]];portConstraint=eastwest;" parent="212" vertex="1">
                    <mxGeometry y="26" width="120" height="26" as="geometry"/>
                </mxCell>
                <mxCell id="241" value="*" style="text;html=1;align=center;verticalAlign=middle;resizable=0;points=[];autosize=1;strokeColor=none;fillColor=none;" parent="1" vertex="1">
                    <mxGeometry x="830" y="210" width="30" height="30" as="geometry"/>
                </mxCell>
                <mxCell id="242" value="*" style="text;html=1;align=center;verticalAlign=middle;resizable=0;points=[];autosize=1;strokeColor=none;fillColor=none;" parent="1" vertex="1">
                    <mxGeometry x="810" y="544" width="30" height="30" as="geometry"/>
                </mxCell>
                <mxCell id="243" style="edgeStyle=none;html=1;endArrow=none;endFill=0;endSize=10;" parent="1" source="69" target="105" edge="1">
                    <mxGeometry relative="1" as="geometry"/>
                </mxCell>
                <mxCell id="245" value="*" style="text;html=1;align=center;verticalAlign=middle;resizable=0;points=[];autosize=1;strokeColor=none;fillColor=none;" parent="1" vertex="1">
                    <mxGeometry x="320" y="430" width="30" height="30" as="geometry"/>
                </mxCell>
                <mxCell id="246" value="*" style="text;html=1;align=center;verticalAlign=middle;resizable=0;points=[];autosize=1;strokeColor=none;fillColor=none;" parent="1" vertex="1">
                    <mxGeometry x="735" y="404" width="30" height="30" as="geometry"/>
                </mxCell>
                <mxCell id="250" style="edgeStyle=none;html=1;endArrow=none;endFill=0;dashed=1;dashPattern=12 12;" parent="1" source="248" edge="1">
                    <mxGeometry relative="1" as="geometry">
                        <mxPoint x="840" y="584" as="targetPoint"/>
                    </mxGeometry>
                </mxCell>
                <mxCell id="248" value="Propose" style="swimlane;fontStyle=0;childLayout=stackLayout;horizontal=1;startSize=26;fillColor=none;horizontalStack=0;resizeParent=1;resizeParentMax=0;resizeLast=0;collapsible=1;marginBottom=0;" parent="1" vertex="1">
                    <mxGeometry x="625" y="558" width="120" height="52" as="geometry"/>
                </mxCell>
            </root>
        </mxGraphModel>
    </diagram>
</mxfile>